<svg width="1193" height="400" viewBox="0 0 1193 400" fill="none" xmlns="http://www.w3.org/2000/svg">
<path d="M598.801 330.211C598.801 335.362 599.4 339.555 600.598 342.789C601.915 345.904 603.772 348.359 606.168 350.156C608.564 351.953 611.558 353.211 615.152 353.93C618.866 354.529 623.178 354.828 628.09 354.828C635.996 354.828 643.124 354.049 649.473 352.492C655.821 350.815 661.392 349.018 666.183 347.102C670.975 345.065 674.988 343.208 678.223 341.531C681.577 339.854 684.152 339.016 685.949 339.016C688.225 339.016 690.022 339.734 691.34 341.172C692.657 342.609 693.316 344.706 693.316 347.461C693.316 352.253 692.837 355.727 691.879 357.883C690.92 359.919 688.944 361.477 685.949 362.555C675.048 366.388 662.769 369.203 649.113 371C635.457 372.917 620.004 373.875 602.754 373.875C589.936 373.875 579.454 373.276 571.308 372.078C563.163 371 556.754 369.023 552.082 366.148C547.41 363.273 544.176 359.38 542.379 354.469C540.702 349.438 539.863 343.029 539.863 335.242V131.117C539.863 128.482 539.564 126.385 538.965 124.828C538.366 123.271 537.527 122.073 536.449 121.234C535.371 120.276 534.053 119.677 532.496 119.438C531.058 119.078 529.441 118.898 527.644 118.898C525.009 118.898 521.715 119.318 517.762 120.156C513.928 120.995 509.855 122.253 505.543 123.93C501.23 125.607 496.858 127.703 492.426 130.219C488.113 132.615 484.22 135.37 480.746 138.484C477.392 141.599 474.637 145.073 472.48 148.906C470.324 152.74 469.246 156.872 469.246 161.305C469.246 165.138 469.725 168.193 470.683 170.469C471.762 172.745 472.959 174.482 474.277 175.68C475.595 176.758 476.913 177.477 478.23 177.836C479.668 178.076 480.686 178.195 481.285 178.195C484.28 178.195 486.736 177.716 488.652 176.758C490.569 175.68 492.306 174.602 493.863 173.523C495.42 172.326 496.858 171.247 498.176 170.289C499.613 169.211 501.23 168.672 503.027 168.672C504.465 168.672 505.962 169.031 507.519 169.75C509.196 170.349 510.694 171.367 512.012 172.805C513.449 174.242 514.647 176.159 515.605 178.555C516.564 180.831 517.043 183.646 517.043 187C517.043 191.792 516.084 195.924 514.168 199.398C512.371 202.872 509.975 205.807 506.98 208.203C504.105 210.479 500.751 212.216 496.918 213.414C493.204 214.492 489.491 215.031 485.777 215.031C480.027 215.031 474.816 214.073 470.144 212.156C465.592 210.12 461.699 207.365 458.465 203.891C455.23 200.417 452.775 196.344 451.098 191.672C449.42 187 448.582 182.029 448.582 176.758C448.582 168.492 450.079 160.945 453.074 154.117C456.069 147.169 460.142 140.94 465.293 135.43C470.564 129.919 476.673 125.128 483.621 121.055C490.689 116.862 498.295 113.388 506.441 110.633C514.587 107.878 523.092 105.841 531.957 104.523C540.821 103.086 549.686 102.367 558.551 102.367C568.374 102.367 575.98 103.326 581.371 105.242C586.881 107.039 590.894 109.255 593.41 111.891C596.045 114.526 597.603 117.281 598.082 120.156C598.561 123.031 598.801 125.427 598.801 127.344V330.211ZM806.383 288.523C806.383 292.357 806.922 296.549 808 301.102C809.198 305.534 810.875 310.026 813.031 314.578C815.188 319.13 817.823 323.503 820.938 327.695C824.172 331.768 827.826 335.422 831.898 338.656C836.091 341.891 840.703 344.466 845.734 346.383C850.766 348.299 856.276 349.258 862.266 349.258C866.458 349.258 870.352 348.779 873.945 347.82C877.539 346.862 880.893 345.544 884.008 343.867C887.122 342.19 890.117 340.273 892.992 338.117C895.867 335.841 898.742 333.445 901.617 330.93L906.109 335.242C903.354 338.956 899.82 343.029 895.508 347.461C891.195 351.893 885.984 356.086 879.875 360.039C873.766 363.872 866.638 367.107 858.492 369.742C850.346 372.258 841.062 373.516 830.641 373.516C820.219 373.516 810.036 371.659 800.094 367.945C790.271 364.112 781.526 358.422 773.859 350.875C766.193 343.328 760.023 333.924 755.352 322.664C750.799 311.404 748.523 298.227 748.523 283.133C748.523 272.232 749.901 262.229 752.656 253.125C755.411 244.021 759.125 235.815 763.797 228.508C768.589 221.201 774.099 214.792 780.328 209.281C786.677 203.771 793.326 199.219 800.273 195.625C807.221 191.911 814.289 189.156 821.477 187.359C828.784 185.443 835.792 184.484 842.5 184.484C851.365 184.484 859.091 185.443 865.68 187.359C872.268 189.276 877.719 191.852 882.031 195.086C886.464 198.32 889.758 202.094 891.914 206.406C894.07 210.599 895.148 215.031 895.148 219.703C895.148 225.333 893.531 230.424 890.297 234.977C887.062 239.409 882.75 243.302 877.359 246.656L806.383 288.523ZM842.5 252.047C844.057 251.089 845.315 250.19 846.273 249.352C847.352 248.393 848.19 247.315 848.789 246.117C849.388 244.799 849.807 243.242 850.047 241.445C850.406 239.529 850.586 237.193 850.586 234.438C850.586 231.443 850.227 228.148 849.508 224.555C848.909 220.841 847.831 217.367 846.273 214.133C844.716 210.898 842.74 208.203 840.344 206.047C837.948 203.891 835.073 202.812 831.719 202.812C827.406 202.812 823.693 204.13 820.578 206.766C817.583 209.281 815.068 212.576 813.031 216.648C811.115 220.721 809.557 225.393 808.359 230.664C807.281 235.815 806.443 241.026 805.844 246.297C805.245 251.568 804.885 256.659 804.766 261.57C804.646 266.362 804.586 270.435 804.586 273.789L842.5 252.047ZM966.707 279C966.707 263.307 968.983 249.591 973.535 237.852C978.087 225.992 984.137 216.109 991.684 208.203C999.35 200.297 1008.21 194.367 1018.28 190.414C1028.34 186.461 1038.88 184.484 1049.9 184.484C1060.92 184.484 1071.46 186.341 1081.53 190.055C1091.59 193.648 1100.39 199.219 1107.94 206.766C1115.61 214.312 1121.72 223.896 1126.27 235.516C1130.82 247.016 1133.1 260.672 1133.1 276.484C1133.1 292.177 1130.82 306.073 1126.27 318.172C1121.72 330.271 1115.61 340.453 1107.94 348.719C1100.39 356.984 1091.59 363.273 1081.53 367.586C1071.46 371.779 1060.92 373.875 1049.9 373.875C1038.88 373.875 1028.34 371.898 1018.28 367.945C1008.21 363.872 999.35 357.883 991.684 349.977C984.137 342.07 978.087 332.188 973.535 320.328C968.983 308.469 966.707 294.693 966.707 279ZM1077.21 277.203C1077.21 267.62 1076.86 258.396 1076.14 249.531C1075.54 240.547 1074.28 232.581 1072.36 225.633C1070.45 218.685 1067.69 213.174 1064.1 209.102C1060.5 204.909 1055.77 202.812 1049.9 202.812C1044.03 202.812 1039.3 205.029 1035.71 209.461C1032.11 213.773 1029.36 219.523 1027.44 226.711C1025.52 233.779 1024.27 241.865 1023.67 250.969C1023.07 260.073 1022.77 269.417 1022.77 279C1022.77 288.583 1023.07 297.987 1023.67 307.211C1024.27 316.315 1025.52 324.461 1027.44 331.648C1029.36 338.836 1032.11 344.646 1035.71 349.078C1039.3 353.391 1044.03 355.547 1049.9 355.547C1055.77 355.547 1060.5 353.271 1064.1 348.719C1067.69 344.167 1070.45 338.177 1072.36 330.75C1074.28 323.323 1075.54 314.938 1076.14 305.594C1076.86 296.25 1077.21 286.786 1077.21 277.203Z" fill="#3A3A3A"/>
<g clip-path="url(#clip0)">
<path d="M30 71.7921C30 65.8787 33.5053 60.4537 38.9988 58.2653C151.753 13.348 222.224 90.3776 339.628 66.7883C349.399 64.8252 359 71.9925 359 81.9582V376.072C359 384.357 352.284 391.072 344 391.072H45C36.7157 391.072 30 384.357 30 376.072V71.7921Z" fill="#3D68AF" stroke="#2D528F" stroke-width="27"/>
<rect x="228.47" y="57.47" width="69.06" height="66.06" fill="#FFAC30" stroke="#FFAC30" stroke-width="18.94"/>
<rect x="225" y="30" width="15" height="12" fill="#FFAC30" stroke="#FFAC30" stroke-width="12"/>
<rect x="286" y="30" width="15" height="12" fill="#FFAC30" stroke="#FFAC30" stroke-width="12"/>
<rect width="18.9353" height="61.5396" transform="matrix(0.707107 -0.707107 -0.707107 -0.707107 262.867 66.9043)" fill="#FFAC30"/>
<rect width="18.9353" height="61.5396" transform="matrix(-0.707107 -0.707107 -0.707107 0.707107 307.027 23.3892)" fill="#FFAC30"/>
<path d="M218.029 306.283C218.029 309.404 218.392 311.945 219.118 313.905C219.917 315.792 221.042 317.28 222.494 318.369C223.945 319.458 225.76 320.22 227.938 320.656C230.188 321.019 232.802 321.2 235.778 321.2C240.569 321.2 244.888 320.728 248.735 319.785C252.583 318.768 255.958 317.68 258.862 316.518C261.765 315.284 264.197 314.159 266.157 313.143C268.19 312.126 269.75 311.618 270.839 311.618C272.219 311.618 273.307 312.054 274.106 312.925C274.904 313.796 275.304 315.066 275.304 316.736C275.304 319.639 275.013 321.745 274.433 323.051C273.852 324.285 272.654 325.229 270.839 325.882C264.234 328.205 256.793 329.911 248.518 331C240.242 332.161 230.878 332.742 220.425 332.742C212.658 332.742 206.306 332.379 201.37 331.653C196.433 331 192.55 329.802 189.719 328.06C186.888 326.318 184.928 323.959 183.839 320.982C182.823 317.934 182.314 314.05 182.314 309.332V185.636C182.314 184.039 182.133 182.769 181.77 181.825C181.407 180.882 180.899 180.156 180.246 179.647C179.592 179.067 178.794 178.704 177.85 178.559C176.979 178.341 175.999 178.232 174.91 178.232C173.313 178.232 171.317 178.486 168.921 178.994C166.598 179.502 164.13 180.264 161.517 181.281C158.904 182.297 156.254 183.567 153.568 185.092C150.955 186.544 148.596 188.213 146.491 190.101C144.458 191.988 142.789 194.093 141.482 196.416C140.175 198.739 139.522 201.243 139.522 203.929C139.522 206.252 139.812 208.103 140.393 209.482C141.046 210.862 141.772 211.914 142.571 212.64C143.369 213.293 144.168 213.729 144.966 213.947C145.837 214.092 146.454 214.165 146.817 214.165C148.632 214.165 150.12 213.874 151.282 213.293C152.443 212.64 153.496 211.987 154.439 211.333C155.383 210.608 156.254 209.954 157.053 209.374C157.924 208.72 158.904 208.394 159.993 208.394C160.864 208.394 161.771 208.611 162.715 209.047C163.731 209.41 164.639 210.027 165.437 210.898C166.308 211.769 167.034 212.931 167.615 214.382C168.195 215.762 168.486 217.467 168.486 219.5C168.486 222.404 167.905 224.908 166.744 227.013C165.655 229.118 164.203 230.897 162.388 232.349C160.646 233.728 158.613 234.78 156.291 235.506C154.04 236.16 151.79 236.486 149.54 236.486C146.055 236.486 142.897 235.906 140.066 234.744C137.308 233.51 134.949 231.84 132.989 229.735C131.029 227.63 129.541 225.162 128.524 222.331C127.508 219.5 127 216.487 127 213.293C127 208.285 127.907 203.711 129.722 199.574C131.537 195.363 134.005 191.589 137.126 188.25C140.32 184.91 144.023 182.007 148.233 179.539C152.516 176.998 157.125 174.893 162.062 173.223C166.998 171.554 172.152 170.319 177.523 169.521C182.895 168.65 188.267 168.214 193.639 168.214C199.591 168.214 204.201 168.795 207.467 169.957C210.806 171.045 213.238 172.388 214.763 173.985C216.36 175.582 217.303 177.252 217.594 178.994C217.884 180.736 218.029 182.188 218.029 183.35V306.283Z" fill="white"/>
</g>
<defs>
<clipPath id="clip0">
<rect width="400" height="400" fill="white"/>
</clipPath>
</defs>
</svg>
