<svg width="400" height="400" viewBox="0 0 400 400" fill="none" xmlns="http://www.w3.org/2000/svg">
<g clip-path="url(#clip0)">
<path d="M30 71.7921C30 65.8787 33.5053 60.4537 38.9988 58.2653C151.753 13.348 222.224 90.3776 339.628 66.7883C349.399 64.8252 359 71.9925 359 81.9582V376.072C359 384.357 352.284 391.072 344 391.072H45C36.7157 391.072 30 384.357 30 376.072V71.7921Z" fill="#3D68AF" stroke="#2D528F" stroke-width="27"/>
<rect x="228.47" y="57.47" width="69.06" height="66.06" fill="#FFAC30" stroke="#FFAC30" stroke-width="18.94"/>
<rect x="225" y="30" width="15" height="12" fill="#FFAC30" stroke="#FFAC30" stroke-width="12"/>
<rect x="286" y="30" width="15" height="12" fill="#FFAC30" stroke="#FFAC30" stroke-width="12"/>
<rect width="18.9353" height="61.5396" transform="matrix(0.707107 -0.707107 -0.707107 -0.707107 262.867 66.9043)" fill="#FFAC30"/>
<rect width="18.9353" height="61.5396" transform="matrix(-0.707107 -0.707107 -0.707107 0.707107 307.027 23.3892)" fill="#FFAC30"/>
<path d="M218.029 306.283C218.029 309.404 218.392 311.945 219.118 313.905C219.917 315.792 221.042 317.28 222.494 318.369C223.945 319.458 225.76 320.22 227.938 320.656C230.188 321.019 232.802 321.2 235.778 321.2C240.569 321.2 244.888 320.728 248.735 319.785C252.583 318.768 255.958 317.68 258.862 316.518C261.765 315.284 264.197 314.159 266.157 313.143C268.19 312.126 269.75 311.618 270.839 311.618C272.219 311.618 273.307 312.054 274.106 312.925C274.904 313.796 275.304 315.066 275.304 316.736C275.304 319.639 275.013 321.745 274.433 323.051C273.852 324.285 272.654 325.229 270.839 325.882C264.234 328.205 256.793 329.911 248.518 331C240.242 332.161 230.878 332.742 220.425 332.742C212.658 332.742 206.306 332.379 201.37 331.653C196.433 331 192.55 329.802 189.719 328.06C186.888 326.318 184.928 323.959 183.839 320.982C182.823 317.934 182.314 314.05 182.314 309.332V185.636C182.314 184.039 182.133 182.769 181.77 181.825C181.407 180.882 180.899 180.156 180.246 179.647C179.592 179.067 178.794 178.704 177.85 178.559C176.979 178.341 175.999 178.232 174.91 178.232C173.313 178.232 171.317 178.486 168.921 178.994C166.598 179.502 164.13 180.264 161.517 181.281C158.904 182.297 156.254 183.567 153.568 185.092C150.955 186.544 148.596 188.213 146.491 190.101C144.458 191.988 142.789 194.093 141.482 196.416C140.175 198.739 139.522 201.243 139.522 203.929C139.522 206.252 139.812 208.103 140.393 209.482C141.046 210.862 141.772 211.914 142.571 212.64C143.369 213.293 144.168 213.729 144.966 213.947C145.837 214.092 146.454 214.165 146.817 214.165C148.632 214.165 150.12 213.874 151.282 213.293C152.443 212.64 153.496 211.987 154.439 211.333C155.383 210.608 156.254 209.954 157.053 209.374C157.924 208.72 158.904 208.394 159.993 208.394C160.864 208.394 161.771 208.611 162.715 209.047C163.731 209.41 164.639 210.027 165.437 210.898C166.308 211.769 167.034 212.931 167.615 214.382C168.195 215.762 168.486 217.467 168.486 219.5C168.486 222.404 167.905 224.908 166.744 227.013C165.655 229.118 164.203 230.897 162.388 232.349C160.646 233.728 158.613 234.78 156.291 235.506C154.04 236.16 151.79 236.486 149.54 236.486C146.055 236.486 142.897 235.906 140.066 234.744C137.308 233.51 134.949 231.84 132.989 229.735C131.029 227.63 129.541 225.162 128.524 222.331C127.508 219.5 127 216.487 127 213.293C127 208.285 127.907 203.711 129.722 199.574C131.537 195.363 134.005 191.589 137.126 188.25C140.32 184.91 144.023 182.007 148.233 179.539C152.516 176.998 157.125 174.893 162.062 173.223C166.998 171.554 172.152 170.319 177.523 169.521C182.895 168.65 188.267 168.214 193.639 168.214C199.591 168.214 204.201 168.795 207.467 169.957C210.806 171.045 213.238 172.388 214.763 173.985C216.36 175.582 217.303 177.252 217.594 178.994C217.884 180.736 218.029 182.188 218.029 183.35V306.283Z" fill="white"/>
</g>
<defs>
<clipPath id="clip0">
<rect width="400" height="400" fill="white"/>
</clipPath>
</defs>
</svg>
