<svg width="1200" height="630" viewBox="0 0 1200 630" fill="none" xmlns="http://www.w3.org/2000/svg">
<g clip-path="url(#clip0)">
<path d="M626.801 428.211C626.801 433.362 627.4 437.555 628.598 440.789C629.915 443.904 631.772 446.359 634.168 448.156C636.564 449.953 639.558 451.211 643.152 451.93C646.866 452.529 651.178 452.828 656.09 452.828C663.996 452.828 671.124 452.049 677.473 450.492C683.821 448.815 689.392 447.018 694.183 445.102C698.975 443.065 702.988 441.208 706.223 439.531C709.577 437.854 712.152 437.016 713.949 437.016C716.225 437.016 718.022 437.734 719.34 439.172C720.657 440.609 721.316 442.706 721.316 445.461C721.316 450.253 720.837 453.727 719.879 455.883C718.92 457.919 716.944 459.477 713.949 460.555C703.048 464.388 690.769 467.203 677.113 469C663.457 470.917 648.004 471.875 630.754 471.875C617.936 471.875 607.454 471.276 599.308 470.078C591.163 469 584.754 467.023 580.082 464.148C575.41 461.273 572.176 457.38 570.379 452.469C568.702 447.438 567.863 441.029 567.863 433.242V229.117C567.863 226.482 567.564 224.385 566.965 222.828C566.366 221.271 565.527 220.073 564.449 219.234C563.371 218.276 562.053 217.677 560.496 217.438C559.058 217.078 557.441 216.898 555.644 216.898C553.009 216.898 549.715 217.318 545.762 218.156C541.928 218.995 537.855 220.253 533.543 221.93C529.23 223.607 524.858 225.703 520.426 228.219C516.113 230.615 512.22 233.37 508.746 236.484C505.392 239.599 502.637 243.073 500.48 246.906C498.324 250.74 497.246 254.872 497.246 259.305C497.246 263.138 497.725 266.193 498.683 268.469C499.762 270.745 500.959 272.482 502.277 273.68C503.595 274.758 504.913 275.477 506.23 275.836C507.668 276.076 508.686 276.195 509.285 276.195C512.28 276.195 514.736 275.716 516.652 274.758C518.569 273.68 520.306 272.602 521.863 271.523C523.42 270.326 524.858 269.247 526.176 268.289C527.613 267.211 529.23 266.672 531.027 266.672C532.465 266.672 533.962 267.031 535.519 267.75C537.196 268.349 538.694 269.367 540.012 270.805C541.449 272.242 542.647 274.159 543.605 276.555C544.564 278.831 545.043 281.646 545.043 285C545.043 289.792 544.084 293.924 542.168 297.398C540.371 300.872 537.975 303.807 534.98 306.203C532.105 308.479 528.751 310.216 524.918 311.414C521.204 312.492 517.491 313.031 513.777 313.031C508.027 313.031 502.816 312.073 498.144 310.156C493.592 308.12 489.699 305.365 486.465 301.891C483.23 298.417 480.775 294.344 479.098 289.672C477.42 285 476.582 280.029 476.582 274.758C476.582 266.492 478.079 258.945 481.074 252.117C484.069 245.169 488.142 238.94 493.293 233.43C498.564 227.919 504.673 223.128 511.621 219.055C518.689 214.862 526.295 211.388 534.441 208.633C542.587 205.878 551.092 203.841 559.957 202.523C568.821 201.086 577.686 200.367 586.551 200.367C596.374 200.367 603.98 201.326 609.371 203.242C614.881 205.039 618.894 207.255 621.41 209.891C624.045 212.526 625.603 215.281 626.082 218.156C626.561 221.031 626.801 223.427 626.801 225.344V428.211ZM834.383 386.523C834.383 390.357 834.922 394.549 836 399.102C837.198 403.534 838.875 408.026 841.031 412.578C843.188 417.13 845.823 421.503 848.938 425.695C852.172 429.768 855.826 433.422 859.898 436.656C864.091 439.891 868.703 442.466 873.734 444.383C878.766 446.299 884.276 447.258 890.266 447.258C894.458 447.258 898.352 446.779 901.945 445.82C905.539 444.862 908.893 443.544 912.008 441.867C915.122 440.19 918.117 438.273 920.992 436.117C923.867 433.841 926.742 431.445 929.617 428.93L934.109 433.242C931.354 436.956 927.82 441.029 923.508 445.461C919.195 449.893 913.984 454.086 907.875 458.039C901.766 461.872 894.638 465.107 886.492 467.742C878.346 470.258 869.062 471.516 858.641 471.516C848.219 471.516 838.036 469.659 828.094 465.945C818.271 462.112 809.526 456.422 801.859 448.875C794.193 441.328 788.023 431.924 783.352 420.664C778.799 409.404 776.523 396.227 776.523 381.133C776.523 370.232 777.901 360.229 780.656 351.125C783.411 342.021 787.125 333.815 791.797 326.508C796.589 319.201 802.099 312.792 808.328 307.281C814.677 301.771 821.326 297.219 828.273 293.625C835.221 289.911 842.289 287.156 849.477 285.359C856.784 283.443 863.792 282.484 870.5 282.484C879.365 282.484 887.091 283.443 893.68 285.359C900.268 287.276 905.719 289.852 910.031 293.086C914.464 296.32 917.758 300.094 919.914 304.406C922.07 308.599 923.148 313.031 923.148 317.703C923.148 323.333 921.531 328.424 918.297 332.977C915.062 337.409 910.75 341.302 905.359 344.656L834.383 386.523ZM870.5 350.047C872.057 349.089 873.315 348.19 874.273 347.352C875.352 346.393 876.19 345.315 876.789 344.117C877.388 342.799 877.807 341.242 878.047 339.445C878.406 337.529 878.586 335.193 878.586 332.438C878.586 329.443 878.227 326.148 877.508 322.555C876.909 318.841 875.831 315.367 874.273 312.133C872.716 308.898 870.74 306.203 868.344 304.047C865.948 301.891 863.073 300.812 859.719 300.812C855.406 300.812 851.693 302.13 848.578 304.766C845.583 307.281 843.068 310.576 841.031 314.648C839.115 318.721 837.557 323.393 836.359 328.664C835.281 333.815 834.443 339.026 833.844 344.297C833.245 349.568 832.885 354.659 832.766 359.57C832.646 364.362 832.586 368.435 832.586 371.789L870.5 350.047ZM994.707 377C994.707 361.307 996.983 347.591 1001.54 335.852C1006.09 323.992 1012.14 314.109 1019.68 306.203C1027.35 298.297 1036.21 292.367 1046.28 288.414C1056.34 284.461 1066.88 282.484 1077.9 282.484C1088.92 282.484 1099.46 284.341 1109.53 288.055C1119.59 291.648 1128.39 297.219 1135.94 304.766C1143.61 312.312 1149.72 321.896 1154.27 333.516C1158.82 345.016 1161.1 358.672 1161.1 374.484C1161.1 390.177 1158.82 404.073 1154.27 416.172C1149.72 428.271 1143.61 438.453 1135.94 446.719C1128.39 454.984 1119.59 461.273 1109.53 465.586C1099.46 469.779 1088.92 471.875 1077.9 471.875C1066.88 471.875 1056.34 469.898 1046.28 465.945C1036.21 461.872 1027.35 455.883 1019.68 447.977C1012.14 440.07 1006.09 430.188 1001.54 418.328C996.983 406.469 994.707 392.693 994.707 377ZM1105.21 375.203C1105.21 365.62 1104.86 356.396 1104.14 347.531C1103.54 338.547 1102.28 330.581 1100.36 323.633C1098.45 316.685 1095.69 311.174 1092.1 307.102C1088.5 302.909 1083.77 300.812 1077.9 300.812C1072.03 300.812 1067.3 303.029 1063.71 307.461C1060.11 311.773 1057.36 317.523 1055.44 324.711C1053.52 331.779 1052.27 339.865 1051.67 348.969C1051.07 358.073 1050.77 367.417 1050.77 377C1050.77 386.583 1051.07 395.987 1051.67 405.211C1052.27 414.315 1053.52 422.461 1055.44 429.648C1057.36 436.836 1060.11 442.646 1063.71 447.078C1067.3 451.391 1072.03 453.547 1077.9 453.547C1083.77 453.547 1088.5 451.271 1092.1 446.719C1095.69 442.167 1098.45 436.177 1100.36 428.75C1102.28 421.323 1103.54 412.938 1104.14 403.594C1104.86 394.25 1105.21 384.786 1105.21 375.203Z" fill="#3A3A3A"/>
<g clip-path="url(#clip1)">
<path d="M58 169.792C58 163.879 61.5053 158.454 66.9988 156.265C179.753 111.348 250.224 188.378 367.628 164.788C377.399 162.825 387 169.993 387 179.958V474.072C387 482.357 380.284 489.072 372 489.072H73C64.7157 489.072 58 482.357 58 474.072V169.792Z" fill="#3D68AF" stroke="#2D528F" stroke-width="27"/>
<rect x="256.47" y="155.47" width="69.06" height="66.06" fill="#FFAC30" stroke="#FFAC30" stroke-width="18.94"/>
<rect x="253" y="128" width="15" height="12" fill="#FFAC30" stroke="#FFAC30" stroke-width="12"/>
<rect x="314" y="128" width="15" height="12" fill="#FFAC30" stroke="#FFAC30" stroke-width="12"/>
<rect width="18.9353" height="61.5396" transform="matrix(0.707107 -0.707107 -0.707107 -0.707107 290.867 164.904)" fill="#FFAC30"/>
<rect width="18.9353" height="61.5396" transform="matrix(-0.707107 -0.707107 -0.707107 0.707107 335.027 121.389)" fill="#FFAC30"/>
<path d="M246.029 404.283C246.029 407.404 246.392 409.945 247.118 411.905C247.917 413.792 249.042 415.28 250.494 416.369C251.945 417.458 253.76 418.22 255.938 418.656C258.188 419.019 260.802 419.2 263.778 419.2C268.569 419.2 272.888 418.728 276.735 417.785C280.583 416.768 283.958 415.68 286.862 414.518C289.765 413.284 292.197 412.159 294.157 411.143C296.19 410.126 297.75 409.618 298.839 409.618C300.219 409.618 301.307 410.054 302.106 410.925C302.904 411.796 303.304 413.066 303.304 414.736C303.304 417.639 303.013 419.745 302.433 421.051C301.852 422.285 300.654 423.229 298.839 423.882C292.234 426.205 284.793 427.911 276.518 429C268.242 430.161 258.878 430.742 248.425 430.742C240.658 430.742 234.306 430.379 229.37 429.653C224.433 429 220.55 427.802 217.719 426.06C214.888 424.318 212.928 421.959 211.839 418.982C210.823 415.934 210.314 412.05 210.314 407.332V283.636C210.314 282.039 210.133 280.769 209.77 279.825C209.407 278.882 208.899 278.156 208.246 277.647C207.592 277.067 206.794 276.704 205.85 276.559C204.979 276.341 203.999 276.232 202.91 276.232C201.313 276.232 199.317 276.486 196.921 276.994C194.598 277.502 192.13 278.264 189.517 279.281C186.904 280.297 184.254 281.567 181.568 283.092C178.955 284.544 176.596 286.213 174.491 288.101C172.458 289.988 170.789 292.093 169.482 294.416C168.175 296.739 167.522 299.243 167.522 301.929C167.522 304.252 167.812 306.103 168.393 307.482C169.046 308.862 169.772 309.914 170.571 310.64C171.369 311.293 172.168 311.729 172.966 311.947C173.837 312.092 174.454 312.165 174.817 312.165C176.632 312.165 178.12 311.874 179.282 311.293C180.443 310.64 181.496 309.987 182.439 309.333C183.383 308.608 184.254 307.954 185.053 307.374C185.924 306.72 186.904 306.394 187.993 306.394C188.864 306.394 189.771 306.611 190.715 307.047C191.731 307.41 192.639 308.027 193.437 308.898C194.308 309.769 195.034 310.931 195.615 312.382C196.195 313.762 196.486 315.467 196.486 317.5C196.486 320.404 195.905 322.908 194.744 325.013C193.655 327.118 192.203 328.897 190.388 330.349C188.646 331.728 186.613 332.78 184.291 333.506C182.04 334.16 179.79 334.486 177.54 334.486C174.055 334.486 170.897 333.906 168.066 332.744C165.308 331.51 162.949 329.84 160.989 327.735C159.029 325.63 157.541 323.162 156.524 320.331C155.508 317.5 155 314.487 155 311.293C155 306.285 155.907 301.711 157.722 297.574C159.537 293.363 162.005 289.589 165.126 286.25C168.32 282.91 172.023 280.007 176.233 277.539C180.516 274.998 185.125 272.893 190.062 271.223C194.998 269.554 200.152 268.319 205.523 267.521C210.895 266.65 216.267 266.214 221.639 266.214C227.591 266.214 232.201 266.795 235.467 267.957C238.806 269.045 241.238 270.388 242.763 271.985C244.36 273.582 245.303 275.252 245.594 276.994C245.884 278.736 246.029 280.188 246.029 281.35V404.283Z" fill="white"/>
</g>
</g>
<defs>
<clipPath id="clip0">
<rect width="1200" height="630" fill="white"/>
</clipPath>
<clipPath id="clip1">
<rect width="400" height="400" fill="white" transform="translate(28 98)"/>
</clipPath>
</defs>
</svg>
